<svg xmlns="http://www.w3.org/2000/svg" width="188" height="40.153" viewBox="0 0 188 40.153">
  <g id="Group_349" data-name="Group 349" transform="translate(1515.858 8.576)">
    <text id="UNIKA_K" data-name="UNIKA K" transform="translate(-1455.858 23.576)" fill="#de432b" font-size="30" font-family="JosefinSans-Regular, Josefin Sans"><tspan x="0" y="0">UNIKA K</tspan></text>
    <g id="Group_273" data-name="Group 273" transform="translate(-1515.858 -8.576)">
      <path id="Path_169" data-name="Path 169" d="M178.661,546.494a10.614,10.614,0,0,1,3.99,1.608l4.368-4.661a20.1,20.1,0,0,0-8.358-5.768Z" transform="translate(-151.747 -536.476)" fill="#de432b"/>
      <path id="Path_170" data-name="Path 170" d="M148.638,582.008a7.619,7.619,0,0,0-1.764,5.248v5.931a5.9,5.9,0,0,0,3.638-1.875,7.62,7.62,0,0,0,1.764-5.248v-5.931A5.906,5.906,0,0,0,148.638,582.008Z" transform="translate(-129.208 -566.584)" fill="#de432b"/>
      <path id="Path_171" data-name="Path 171" d="M117.862,553.042a7.62,7.62,0,0,0,1.764,5.248A5.65,5.65,0,0,0,122.457,560v-5.764a12.277,12.277,0,0,1,.746-4.343,9.675,9.675,0,0,1,2.171-3.438,10.09,10.09,0,0,1,3.415-2.262,10.921,10.921,0,0,1,2.915-.728v-9.679a20.214,20.214,0,0,0-2.992-.223,19.975,19.975,0,0,0-10.851,3.189Z" transform="translate(-108.636 -533.561)" fill="#de432b"/>
      <path id="Path_172" data-name="Path 172" d="M99.972,579.306a10.572,10.572,0,0,1-2.107-.611,10.083,10.083,0,0,1-3.416-2.262,9.677,9.677,0,0,1-2.171-3.438,12.274,12.274,0,0,1-.747-4.343V555.576a20.071,20.071,0,0,0,8.441,32.749Z" transform="translate(-86.151 -549.171)" fill="#de432b"/>
      <path id="Path_173" data-name="Path 173" d="M200.217,570.515a9.867,9.867,0,0,1,1.423,2.576,12.277,12.277,0,0,1,.746,4.343v12.421a20.063,20.063,0,0,0,1.8-23.574Z" transform="translate(-167.032 -556.762)" fill="#de432b"/>
      <path id="Path_174" data-name="Path 174" d="M160.717,587.666a7.619,7.619,0,0,0-1.764-5.248,5.651,5.651,0,0,0-2.831-1.707v5.763a12.275,12.275,0,0,1-.747,4.343,9.674,9.674,0,0,1-2.171,3.438,10.085,10.085,0,0,1-3.415,2.262,10.908,10.908,0,0,1-2.914.727V607a20.228,20.228,0,0,0,2.41.149,19.979,19.979,0,0,0,11.433-3.576Z" transform="translate(-129.208 -566.994)" fill="#de432b"/>
    </g>
  </g>
</svg>
